<mxfile host="app.diagrams.net" modified="2023-10-12T15:50:12.278Z" agent="Mozilla/5.0 (Windows NT 10.0; Win64; x64) AppleWebKit/537.36 (KHTML, like Gecko) Chrome/116.0.0.0 Safari/537.36 OPR/102.0.0.0" etag="El7tH3QNu4g-71gZL7F1" version="22.0.4" type="device">
  <diagram id="C5RBs43oDa-KdzZeNtuy" name="Page-1">
    <mxGraphModel dx="1519" dy="574" grid="1" gridSize="10" guides="1" tooltips="1" connect="1" arrows="1" fold="1" page="1" pageScale="1" pageWidth="827" pageHeight="1169" math="0" shadow="0">
      <root>
        <mxCell id="WIyWlLk6GJQsqaUBKTNV-0" />
        <mxCell id="WIyWlLk6GJQsqaUBKTNV-1" parent="WIyWlLk6GJQsqaUBKTNV-0" />
        <mxCell id="u8ZtOjPHoi9iFquWW6v9-4" value="Товар" style="swimlane;fontStyle=1;align=center;verticalAlign=top;childLayout=stackLayout;horizontal=1;startSize=26;horizontalStack=0;resizeParent=1;resizeParentMax=0;resizeLast=0;collapsible=1;marginBottom=0;whiteSpace=wrap;html=1;" vertex="1" parent="WIyWlLk6GJQsqaUBKTNV-1">
          <mxGeometry x="390" y="390" width="250" height="146" as="geometry">
            <mxRectangle x="700" y="300" width="80" height="30" as="alternateBounds" />
          </mxGeometry>
        </mxCell>
        <mxCell id="u8ZtOjPHoi9iFquWW6v9-5" value="# Код товара: integer {unique}" style="text;strokeColor=none;fillColor=none;align=left;verticalAlign=top;spacingLeft=4;spacingRight=4;overflow=hidden;rotatable=0;points=[[0,0.5],[1,0.5]];portConstraint=eastwest;whiteSpace=wrap;html=1;" vertex="1" parent="u8ZtOjPHoi9iFquWW6v9-4">
          <mxGeometry y="26" width="250" height="24" as="geometry" />
        </mxCell>
        <mxCell id="u8ZtOjPHoi9iFquWW6v9-8" value="+ Название: string {readOnly}&amp;nbsp;" style="text;strokeColor=none;fillColor=none;align=left;verticalAlign=top;spacingLeft=4;spacingRight=4;overflow=hidden;rotatable=0;points=[[0,0.5],[1,0.5]];portConstraint=eastwest;whiteSpace=wrap;html=1;" vertex="1" parent="u8ZtOjPHoi9iFquWW6v9-4">
          <mxGeometry y="50" width="250" height="24" as="geometry" />
        </mxCell>
        <mxCell id="u8ZtOjPHoi9iFquWW6v9-38" value="+ Единица измерения: string {readOnly}" style="text;strokeColor=none;fillColor=none;align=left;verticalAlign=top;spacingLeft=4;spacingRight=4;overflow=hidden;rotatable=0;points=[[0,0.5],[1,0.5]];portConstraint=eastwest;whiteSpace=wrap;html=1;" vertex="1" parent="u8ZtOjPHoi9iFquWW6v9-4">
          <mxGeometry y="74" width="250" height="24" as="geometry" />
        </mxCell>
        <mxCell id="u8ZtOjPHoi9iFquWW6v9-39" value="+ Описание: string {readOnly}" style="text;strokeColor=none;fillColor=none;align=left;verticalAlign=top;spacingLeft=4;spacingRight=4;overflow=hidden;rotatable=0;points=[[0,0.5],[1,0.5]];portConstraint=eastwest;whiteSpace=wrap;html=1;" vertex="1" parent="u8ZtOjPHoi9iFquWW6v9-4">
          <mxGeometry y="98" width="250" height="24" as="geometry" />
        </mxCell>
        <mxCell id="u8ZtOjPHoi9iFquWW6v9-40" value="+ Цена: currency&amp;nbsp;" style="text;strokeColor=none;fillColor=none;align=left;verticalAlign=top;spacingLeft=4;spacingRight=4;overflow=hidden;rotatable=0;points=[[0,0.5],[1,0.5]];portConstraint=eastwest;whiteSpace=wrap;html=1;" vertex="1" parent="u8ZtOjPHoi9iFquWW6v9-4">
          <mxGeometry y="122" width="250" height="24" as="geometry" />
        </mxCell>
        <mxCell id="u8ZtOjPHoi9iFquWW6v9-18" value="Клиент" style="swimlane;fontStyle=1;align=center;verticalAlign=top;childLayout=stackLayout;horizontal=1;startSize=26;horizontalStack=0;resizeParent=1;resizeParentMax=0;resizeLast=0;collapsible=1;marginBottom=0;whiteSpace=wrap;html=1;" vertex="1" parent="WIyWlLk6GJQsqaUBKTNV-1">
          <mxGeometry x="1190" y="170" width="250" height="130" as="geometry" />
        </mxCell>
        <mxCell id="u8ZtOjPHoi9iFquWW6v9-19" value="+ ФИО: string {readOnly}" style="text;strokeColor=none;fillColor=none;align=left;verticalAlign=top;spacingLeft=4;spacingRight=4;overflow=hidden;rotatable=0;points=[[0,0.5],[1,0.5]];portConstraint=eastwest;whiteSpace=wrap;html=1;" vertex="1" parent="u8ZtOjPHoi9iFquWW6v9-18">
          <mxGeometry y="26" width="250" height="26" as="geometry" />
        </mxCell>
        <mxCell id="u8ZtOjPHoi9iFquWW6v9-24" value="+ НомерТелефона: integer [1..*] {unique}" style="text;strokeColor=none;fillColor=none;align=left;verticalAlign=top;spacingLeft=4;spacingRight=4;overflow=hidden;rotatable=0;points=[[0,0.5],[1,0.5]];portConstraint=eastwest;whiteSpace=wrap;html=1;" vertex="1" parent="u8ZtOjPHoi9iFquWW6v9-18">
          <mxGeometry y="52" width="250" height="26" as="geometry" />
        </mxCell>
        <mxCell id="u8ZtOjPHoi9iFquWW6v9-25" value="- Email: string {readOnly}" style="text;strokeColor=none;fillColor=none;align=left;verticalAlign=top;spacingLeft=4;spacingRight=4;overflow=hidden;rotatable=0;points=[[0,0.5],[1,0.5]];portConstraint=eastwest;whiteSpace=wrap;html=1;" vertex="1" parent="u8ZtOjPHoi9iFquWW6v9-18">
          <mxGeometry y="78" width="250" height="26" as="geometry" />
        </mxCell>
        <mxCell id="u8ZtOjPHoi9iFquWW6v9-26" value="# КодКлиента: integer {unique}" style="text;strokeColor=none;fillColor=none;align=left;verticalAlign=top;spacingLeft=4;spacingRight=4;overflow=hidden;rotatable=0;points=[[0,0.5],[1,0.5]];portConstraint=eastwest;whiteSpace=wrap;html=1;" vertex="1" parent="u8ZtOjPHoi9iFquWW6v9-18">
          <mxGeometry y="104" width="250" height="26" as="geometry" />
        </mxCell>
        <mxCell id="u8ZtOjPHoi9iFquWW6v9-27" value="Сотрудник" style="swimlane;fontStyle=1;align=center;verticalAlign=top;childLayout=stackLayout;horizontal=1;startSize=26;horizontalStack=0;resizeParent=1;resizeParentMax=0;resizeLast=0;collapsible=1;marginBottom=0;whiteSpace=wrap;html=1;" vertex="1" parent="WIyWlLk6GJQsqaUBKTNV-1">
          <mxGeometry x="570" y="620" width="250" height="130" as="geometry" />
        </mxCell>
        <mxCell id="u8ZtOjPHoi9iFquWW6v9-28" value="+ ФИО: string {readOnly}" style="text;strokeColor=none;fillColor=none;align=left;verticalAlign=top;spacingLeft=4;spacingRight=4;overflow=hidden;rotatable=0;points=[[0,0.5],[1,0.5]];portConstraint=eastwest;whiteSpace=wrap;html=1;" vertex="1" parent="u8ZtOjPHoi9iFquWW6v9-27">
          <mxGeometry y="26" width="250" height="26" as="geometry" />
        </mxCell>
        <mxCell id="u8ZtOjPHoi9iFquWW6v9-31" value="&lt;div&gt;&lt;span style=&quot;background-color: initial;&quot;&gt;+ НомерТелефона: integer [1..*] {unique}&lt;/span&gt;&lt;br&gt;&lt;/div&gt;" style="text;strokeColor=none;fillColor=none;align=left;verticalAlign=top;spacingLeft=4;spacingRight=4;overflow=hidden;rotatable=0;points=[[0,0.5],[1,0.5]];portConstraint=eastwest;whiteSpace=wrap;html=1;" vertex="1" parent="u8ZtOjPHoi9iFquWW6v9-27">
          <mxGeometry y="52" width="250" height="26" as="geometry" />
        </mxCell>
        <mxCell id="u8ZtOjPHoi9iFquWW6v9-36" value="- Email: string {readOnly}" style="text;strokeColor=none;fillColor=none;align=left;verticalAlign=top;spacingLeft=4;spacingRight=4;overflow=hidden;rotatable=0;points=[[0,0.5],[1,0.5]];portConstraint=eastwest;whiteSpace=wrap;html=1;" vertex="1" parent="u8ZtOjPHoi9iFquWW6v9-27">
          <mxGeometry y="78" width="250" height="26" as="geometry" />
        </mxCell>
        <mxCell id="u8ZtOjPHoi9iFquWW6v9-37" value="&lt;div&gt;# КодСотрудника: integer {unique}&lt;br&gt;&lt;/div&gt;" style="text;strokeColor=none;fillColor=none;align=left;verticalAlign=top;spacingLeft=4;spacingRight=4;overflow=hidden;rotatable=0;points=[[0,0.5],[1,0.5]];portConstraint=eastwest;whiteSpace=wrap;html=1;" vertex="1" parent="u8ZtOjPHoi9iFquWW6v9-27">
          <mxGeometry y="104" width="250" height="26" as="geometry" />
        </mxCell>
        <mxCell id="u8ZtOjPHoi9iFquWW6v9-41" value="Склад" style="swimlane;fontStyle=1;align=center;verticalAlign=top;childLayout=stackLayout;horizontal=1;startSize=26;horizontalStack=0;resizeParent=1;resizeParentMax=0;resizeLast=0;collapsible=1;marginBottom=0;whiteSpace=wrap;html=1;" vertex="1" parent="WIyWlLk6GJQsqaUBKTNV-1">
          <mxGeometry x="860" y="222" width="160" height="78" as="geometry" />
        </mxCell>
        <mxCell id="u8ZtOjPHoi9iFquWW6v9-42" value="+ Адрес: string {readOnly}" style="text;strokeColor=none;fillColor=none;align=left;verticalAlign=top;spacingLeft=4;spacingRight=4;overflow=hidden;rotatable=0;points=[[0,0.5],[1,0.5]];portConstraint=eastwest;whiteSpace=wrap;html=1;" vertex="1" parent="u8ZtOjPHoi9iFquWW6v9-41">
          <mxGeometry y="26" width="160" height="26" as="geometry" />
        </mxCell>
        <mxCell id="u8ZtOjPHoi9iFquWW6v9-47" value="# Номер: integer {unique}" style="text;strokeColor=none;fillColor=none;align=left;verticalAlign=top;spacingLeft=4;spacingRight=4;overflow=hidden;rotatable=0;points=[[0,0.5],[1,0.5]];portConstraint=eastwest;whiteSpace=wrap;html=1;" vertex="1" parent="u8ZtOjPHoi9iFquWW6v9-41">
          <mxGeometry y="52" width="160" height="26" as="geometry" />
        </mxCell>
        <mxCell id="u8ZtOjPHoi9iFquWW6v9-48" value="Заказ" style="swimlane;fontStyle=1;align=center;verticalAlign=top;childLayout=stackLayout;horizontal=1;startSize=26;horizontalStack=0;resizeParent=1;resizeParentMax=0;resizeLast=0;collapsible=1;marginBottom=0;whiteSpace=wrap;html=1;" vertex="1" parent="WIyWlLk6GJQsqaUBKTNV-1">
          <mxGeometry x="580" y="179" width="210" height="164" as="geometry" />
        </mxCell>
        <mxCell id="u8ZtOjPHoi9iFquWW6v9-49" value="+ Сатус: string&amp;nbsp;" style="text;strokeColor=none;fillColor=none;align=left;verticalAlign=top;spacingLeft=4;spacingRight=4;overflow=hidden;rotatable=0;points=[[0,0.5],[1,0.5]];portConstraint=eastwest;whiteSpace=wrap;html=1;" vertex="1" parent="u8ZtOjPHoi9iFquWW6v9-48">
          <mxGeometry y="26" width="210" height="26" as="geometry" />
        </mxCell>
        <mxCell id="u8ZtOjPHoi9iFquWW6v9-53" value="+ ДатаОтгрузки: integer" style="text;strokeColor=none;fillColor=none;align=left;verticalAlign=top;spacingLeft=4;spacingRight=4;overflow=hidden;rotatable=0;points=[[0,0.5],[1,0.5]];portConstraint=eastwest;whiteSpace=wrap;html=1;" vertex="1" parent="u8ZtOjPHoi9iFquWW6v9-48">
          <mxGeometry y="52" width="210" height="26" as="geometry" />
        </mxCell>
        <mxCell id="u8ZtOjPHoi9iFquWW6v9-54" value="+ ДатаОплаты: integer" style="text;strokeColor=none;fillColor=none;align=left;verticalAlign=top;spacingLeft=4;spacingRight=4;overflow=hidden;rotatable=0;points=[[0,0.5],[1,0.5]];portConstraint=eastwest;whiteSpace=wrap;html=1;" vertex="1" parent="u8ZtOjPHoi9iFquWW6v9-48">
          <mxGeometry y="78" width="210" height="26" as="geometry" />
        </mxCell>
        <mxCell id="u8ZtOjPHoi9iFquWW6v9-55" value="+ Цена: currency" style="text;strokeColor=none;fillColor=none;align=left;verticalAlign=top;spacingLeft=4;spacingRight=4;overflow=hidden;rotatable=0;points=[[0,0.5],[1,0.5]];portConstraint=eastwest;whiteSpace=wrap;html=1;" vertex="1" parent="u8ZtOjPHoi9iFquWW6v9-48">
          <mxGeometry y="104" width="210" height="26" as="geometry" />
        </mxCell>
        <mxCell id="u8ZtOjPHoi9iFquWW6v9-50" value="" style="line;strokeWidth=1;fillColor=none;align=left;verticalAlign=middle;spacingTop=-1;spacingLeft=3;spacingRight=3;rotatable=0;labelPosition=right;points=[];portConstraint=eastwest;strokeColor=inherit;" vertex="1" parent="u8ZtOjPHoi9iFquWW6v9-48">
          <mxGeometry y="130" width="210" height="8" as="geometry" />
        </mxCell>
        <mxCell id="u8ZtOjPHoi9iFquWW6v9-51" value="+ Изменить (in Статус: string)" style="text;strokeColor=none;fillColor=none;align=left;verticalAlign=top;spacingLeft=4;spacingRight=4;overflow=hidden;rotatable=0;points=[[0,0.5],[1,0.5]];portConstraint=eastwest;whiteSpace=wrap;html=1;" vertex="1" parent="u8ZtOjPHoi9iFquWW6v9-48">
          <mxGeometry y="138" width="210" height="26" as="geometry" />
        </mxCell>
        <mxCell id="u8ZtOjPHoi9iFquWW6v9-56" value="Накладная" style="swimlane;fontStyle=1;align=center;verticalAlign=top;childLayout=stackLayout;horizontal=1;startSize=26;horizontalStack=0;resizeParent=1;resizeParentMax=0;resizeLast=0;collapsible=1;marginBottom=0;whiteSpace=wrap;html=1;" vertex="1" parent="WIyWlLk6GJQsqaUBKTNV-1">
          <mxGeometry x="250" y="178" width="240" height="130" as="geometry" />
        </mxCell>
        <mxCell id="u8ZtOjPHoi9iFquWW6v9-57" value="+ Статус: string" style="text;strokeColor=none;fillColor=none;align=left;verticalAlign=top;spacingLeft=4;spacingRight=4;overflow=hidden;rotatable=0;points=[[0,0.5],[1,0.5]];portConstraint=eastwest;whiteSpace=wrap;html=1;" vertex="1" parent="u8ZtOjPHoi9iFquWW6v9-56">
          <mxGeometry y="26" width="240" height="26" as="geometry" />
        </mxCell>
        <mxCell id="u8ZtOjPHoi9iFquWW6v9-60" value="+ ДатаВремяОтгрузки: integer&amp;nbsp;" style="text;strokeColor=none;fillColor=none;align=left;verticalAlign=top;spacingLeft=4;spacingRight=4;overflow=hidden;rotatable=0;points=[[0,0.5],[1,0.5]];portConstraint=eastwest;whiteSpace=wrap;html=1;" vertex="1" parent="u8ZtOjPHoi9iFquWW6v9-56">
          <mxGeometry y="52" width="240" height="26" as="geometry" />
        </mxCell>
        <mxCell id="u8ZtOjPHoi9iFquWW6v9-61" value="+ Вес: integer" style="text;strokeColor=none;fillColor=none;align=left;verticalAlign=top;spacingLeft=4;spacingRight=4;overflow=hidden;rotatable=0;points=[[0,0.5],[1,0.5]];portConstraint=eastwest;whiteSpace=wrap;html=1;" vertex="1" parent="u8ZtOjPHoi9iFquWW6v9-56">
          <mxGeometry y="78" width="240" height="26" as="geometry" />
        </mxCell>
        <mxCell id="u8ZtOjPHoi9iFquWW6v9-62" value="+ ФИО получателя: string {readOnly}" style="text;strokeColor=none;fillColor=none;align=left;verticalAlign=top;spacingLeft=4;spacingRight=4;overflow=hidden;rotatable=0;points=[[0,0.5],[1,0.5]];portConstraint=eastwest;whiteSpace=wrap;html=1;" vertex="1" parent="u8ZtOjPHoi9iFquWW6v9-56">
          <mxGeometry y="104" width="240" height="26" as="geometry" />
        </mxCell>
        <mxCell id="u8ZtOjPHoi9iFquWW6v9-63" value="ТоварНаСкладе" style="swimlane;fontStyle=1;align=center;verticalAlign=top;childLayout=stackLayout;horizontal=1;startSize=26;horizontalStack=0;resizeParent=1;resizeParentMax=0;resizeLast=0;collapsible=1;marginBottom=0;whiteSpace=wrap;html=1;" vertex="1" parent="WIyWlLk6GJQsqaUBKTNV-1">
          <mxGeometry x="717" y="390" width="200" height="86" as="geometry" />
        </mxCell>
        <mxCell id="u8ZtOjPHoi9iFquWW6v9-64" value="# КоличествоТовара: integer&amp;nbsp;" style="text;strokeColor=none;fillColor=none;align=left;verticalAlign=top;spacingLeft=4;spacingRight=4;overflow=hidden;rotatable=0;points=[[0,0.5],[1,0.5]];portConstraint=eastwest;whiteSpace=wrap;html=1;" vertex="1" parent="u8ZtOjPHoi9iFquWW6v9-63">
          <mxGeometry y="26" width="200" height="26" as="geometry" />
        </mxCell>
        <mxCell id="u8ZtOjPHoi9iFquWW6v9-65" value="" style="line;strokeWidth=1;fillColor=none;align=left;verticalAlign=middle;spacingTop=-1;spacingLeft=3;spacingRight=3;rotatable=0;labelPosition=right;points=[];portConstraint=eastwest;strokeColor=inherit;" vertex="1" parent="u8ZtOjPHoi9iFquWW6v9-63">
          <mxGeometry y="52" width="200" height="8" as="geometry" />
        </mxCell>
        <mxCell id="u8ZtOjPHoi9iFquWW6v9-66" value="+ method(type): type" style="text;strokeColor=none;fillColor=none;align=left;verticalAlign=top;spacingLeft=4;spacingRight=4;overflow=hidden;rotatable=0;points=[[0,0.5],[1,0.5]];portConstraint=eastwest;whiteSpace=wrap;html=1;" vertex="1" parent="u8ZtOjPHoi9iFquWW6v9-63">
          <mxGeometry y="60" width="200" height="26" as="geometry" />
        </mxCell>
        <mxCell id="u8ZtOjPHoi9iFquWW6v9-69" value="+ Менеджер" style="text;html=1;align=center;verticalAlign=middle;resizable=0;points=[];autosize=1;strokeColor=none;fillColor=none;" vertex="1" parent="WIyWlLk6GJQsqaUBKTNV-1">
          <mxGeometry x="822" y="710" width="90" height="30" as="geometry" />
        </mxCell>
        <mxCell id="u8ZtOjPHoi9iFquWW6v9-71" value="1" style="text;html=1;align=center;verticalAlign=middle;resizable=0;points=[];autosize=1;strokeColor=none;fillColor=none;" vertex="1" parent="WIyWlLk6GJQsqaUBKTNV-1">
          <mxGeometry x="820" y="680" width="30" height="30" as="geometry" />
        </mxCell>
        <mxCell id="u8ZtOjPHoi9iFquWW6v9-73" style="edgeStyle=orthogonalEdgeStyle;rounded=0;orthogonalLoop=1;jettySize=auto;html=1;exitX=1;exitY=0.5;exitDx=0;exitDy=0;entryX=1.003;entryY=0.998;entryDx=0;entryDy=0;endArrow=none;endFill=0;entryPerimeter=0;" edge="1" parent="WIyWlLk6GJQsqaUBKTNV-1" source="u8ZtOjPHoi9iFquWW6v9-28" target="u8ZtOjPHoi9iFquWW6v9-47">
          <mxGeometry relative="1" as="geometry">
            <Array as="points">
              <mxPoint x="820" y="640" />
              <mxPoint x="960" y="640" />
              <mxPoint x="960" y="580" />
              <mxPoint x="1020" y="580" />
              <mxPoint x="1020" y="278" />
            </Array>
          </mxGeometry>
        </mxCell>
        <mxCell id="u8ZtOjPHoi9iFquWW6v9-74" value="+ Кладовщик" style="text;html=1;align=center;verticalAlign=middle;resizable=0;points=[];autosize=1;strokeColor=none;fillColor=none;" vertex="1" parent="WIyWlLk6GJQsqaUBKTNV-1">
          <mxGeometry x="817" y="640" width="100" height="30" as="geometry" />
        </mxCell>
        <mxCell id="u8ZtOjPHoi9iFquWW6v9-75" value="1" style="text;html=1;align=center;verticalAlign=middle;resizable=0;points=[];autosize=1;strokeColor=none;fillColor=none;" vertex="1" parent="WIyWlLk6GJQsqaUBKTNV-1">
          <mxGeometry x="820" y="610" width="30" height="30" as="geometry" />
        </mxCell>
        <mxCell id="u8ZtOjPHoi9iFquWW6v9-76" value="*" style="text;html=1;align=center;verticalAlign=middle;resizable=0;points=[];autosize=1;strokeColor=none;fillColor=none;" vertex="1" parent="WIyWlLk6GJQsqaUBKTNV-1">
          <mxGeometry x="1020" y="278" width="30" height="30" as="geometry" />
        </mxCell>
        <mxCell id="u8ZtOjPHoi9iFquWW6v9-77" style="edgeStyle=orthogonalEdgeStyle;rounded=0;orthogonalLoop=1;jettySize=auto;html=1;exitX=1;exitY=0.5;exitDx=0;exitDy=0;endArrow=none;endFill=0;" edge="1" parent="WIyWlLk6GJQsqaUBKTNV-1">
          <mxGeometry relative="1" as="geometry">
            <mxPoint x="819.58" y="710" as="sourcePoint" />
            <mxPoint x="1090" y="200" as="targetPoint" />
            <Array as="points">
              <mxPoint x="1090" y="709" />
              <mxPoint x="1090" y="198" />
            </Array>
          </mxGeometry>
        </mxCell>
        <mxCell id="u8ZtOjPHoi9iFquWW6v9-85" value="*" style="text;html=1;align=center;verticalAlign=middle;resizable=0;points=[];autosize=1;strokeColor=none;fillColor=none;" vertex="1" parent="WIyWlLk6GJQsqaUBKTNV-1">
          <mxGeometry x="790" y="170" width="30" height="30" as="geometry" />
        </mxCell>
        <mxCell id="u8ZtOjPHoi9iFquWW6v9-86" style="edgeStyle=orthogonalEdgeStyle;rounded=0;orthogonalLoop=1;jettySize=auto;html=1;exitX=0;exitY=0.5;exitDx=0;exitDy=0;entryX=0;entryY=0.5;entryDx=0;entryDy=0;endArrow=none;endFill=0;" edge="1" parent="WIyWlLk6GJQsqaUBKTNV-1" source="u8ZtOjPHoi9iFquWW6v9-31" target="u8ZtOjPHoi9iFquWW6v9-61">
          <mxGeometry relative="1" as="geometry">
            <Array as="points">
              <mxPoint x="190" y="685" />
              <mxPoint x="190" y="239" />
            </Array>
          </mxGeometry>
        </mxCell>
        <mxCell id="u8ZtOjPHoi9iFquWW6v9-87" value="+ Бухгалтер" style="text;html=1;align=center;verticalAlign=middle;resizable=0;points=[];autosize=1;strokeColor=none;fillColor=none;" vertex="1" parent="WIyWlLk6GJQsqaUBKTNV-1">
          <mxGeometry x="480" y="690" width="90" height="30" as="geometry" />
        </mxCell>
        <mxCell id="u8ZtOjPHoi9iFquWW6v9-88" value="1" style="text;html=1;align=center;verticalAlign=middle;resizable=0;points=[];autosize=1;strokeColor=none;fillColor=none;" vertex="1" parent="WIyWlLk6GJQsqaUBKTNV-1">
          <mxGeometry x="530" y="660" width="30" height="30" as="geometry" />
        </mxCell>
        <mxCell id="u8ZtOjPHoi9iFquWW6v9-90" value="*" style="text;html=1;align=center;verticalAlign=middle;resizable=0;points=[];autosize=1;strokeColor=none;fillColor=none;" vertex="1" parent="WIyWlLk6GJQsqaUBKTNV-1">
          <mxGeometry x="210" y="210" width="30" height="30" as="geometry" />
        </mxCell>
        <mxCell id="u8ZtOjPHoi9iFquWW6v9-91" style="edgeStyle=orthogonalEdgeStyle;rounded=0;orthogonalLoop=1;jettySize=auto;html=1;exitX=0;exitY=0.5;exitDx=0;exitDy=0;entryX=0.254;entryY=0.981;entryDx=0;entryDy=0;entryPerimeter=0;endArrow=none;endFill=0;" edge="1" parent="WIyWlLk6GJQsqaUBKTNV-1" source="u8ZtOjPHoi9iFquWW6v9-38" target="u8ZtOjPHoi9iFquWW6v9-62">
          <mxGeometry relative="1" as="geometry" />
        </mxCell>
        <mxCell id="u8ZtOjPHoi9iFquWW6v9-92" value="*" style="text;html=1;align=center;verticalAlign=middle;resizable=0;points=[];autosize=1;strokeColor=none;fillColor=none;" vertex="1" parent="WIyWlLk6GJQsqaUBKTNV-1">
          <mxGeometry x="310" y="308" width="30" height="30" as="geometry" />
        </mxCell>
        <mxCell id="u8ZtOjPHoi9iFquWW6v9-93" value="1" style="text;html=1;align=center;verticalAlign=middle;resizable=0;points=[];autosize=1;strokeColor=none;fillColor=none;" vertex="1" parent="WIyWlLk6GJQsqaUBKTNV-1">
          <mxGeometry x="360" y="446" width="30" height="30" as="geometry" />
        </mxCell>
        <mxCell id="u8ZtOjPHoi9iFquWW6v9-94" style="edgeStyle=orthogonalEdgeStyle;rounded=0;orthogonalLoop=1;jettySize=auto;html=1;exitX=1;exitY=0.5;exitDx=0;exitDy=0;endArrow=diamondThin;endFill=1;endSize=27;" edge="1" parent="WIyWlLk6GJQsqaUBKTNV-1" source="u8ZtOjPHoi9iFquWW6v9-64" target="u8ZtOjPHoi9iFquWW6v9-47">
          <mxGeometry relative="1" as="geometry">
            <Array as="points">
              <mxPoint x="970" y="429" />
            </Array>
          </mxGeometry>
        </mxCell>
        <mxCell id="u8ZtOjPHoi9iFquWW6v9-95" value="*" style="text;html=1;align=center;verticalAlign=middle;resizable=0;points=[];autosize=1;strokeColor=none;fillColor=none;" vertex="1" parent="WIyWlLk6GJQsqaUBKTNV-1">
          <mxGeometry x="917" y="400" width="30" height="30" as="geometry" />
        </mxCell>
        <mxCell id="u8ZtOjPHoi9iFquWW6v9-96" value="1" style="text;html=1;align=center;verticalAlign=middle;resizable=0;points=[];autosize=1;strokeColor=none;fillColor=none;" vertex="1" parent="WIyWlLk6GJQsqaUBKTNV-1">
          <mxGeometry x="940" y="300" width="30" height="30" as="geometry" />
        </mxCell>
        <mxCell id="u8ZtOjPHoi9iFquWW6v9-97" style="edgeStyle=orthogonalEdgeStyle;rounded=0;orthogonalLoop=1;jettySize=auto;html=1;exitX=1;exitY=0.5;exitDx=0;exitDy=0;entryX=0.012;entryY=0.097;entryDx=0;entryDy=0;entryPerimeter=0;" edge="1" parent="WIyWlLk6GJQsqaUBKTNV-1" source="u8ZtOjPHoi9iFquWW6v9-8" target="u8ZtOjPHoi9iFquWW6v9-66">
          <mxGeometry relative="1" as="geometry" />
        </mxCell>
        <mxCell id="u8ZtOjPHoi9iFquWW6v9-98" value="*" style="text;html=1;align=center;verticalAlign=middle;resizable=0;points=[];autosize=1;strokeColor=none;fillColor=none;" vertex="1" parent="WIyWlLk6GJQsqaUBKTNV-1">
          <mxGeometry x="687" y="430" width="30" height="30" as="geometry" />
        </mxCell>
        <mxCell id="u8ZtOjPHoi9iFquWW6v9-99" value="1" style="text;html=1;align=center;verticalAlign=middle;resizable=0;points=[];autosize=1;strokeColor=none;fillColor=none;" vertex="1" parent="WIyWlLk6GJQsqaUBKTNV-1">
          <mxGeometry x="630" y="430" width="30" height="30" as="geometry" />
        </mxCell>
        <mxCell id="u8ZtOjPHoi9iFquWW6v9-100" style="edgeStyle=orthogonalEdgeStyle;rounded=0;orthogonalLoop=1;jettySize=auto;html=1;exitX=0;exitY=0.5;exitDx=0;exitDy=0;entryX=1;entryY=0.5;entryDx=0;entryDy=0;endArrow=none;endFill=0;" edge="1" parent="WIyWlLk6GJQsqaUBKTNV-1" source="u8ZtOjPHoi9iFquWW6v9-54" target="u8ZtOjPHoi9iFquWW6v9-61">
          <mxGeometry relative="1" as="geometry" />
        </mxCell>
        <mxCell id="u8ZtOjPHoi9iFquWW6v9-101" value="1" style="text;html=1;align=center;verticalAlign=middle;resizable=0;points=[];autosize=1;strokeColor=none;fillColor=none;" vertex="1" parent="WIyWlLk6GJQsqaUBKTNV-1">
          <mxGeometry x="550" y="240" width="30" height="30" as="geometry" />
        </mxCell>
        <mxCell id="u8ZtOjPHoi9iFquWW6v9-102" value="2" style="text;html=1;align=center;verticalAlign=middle;resizable=0;points=[];autosize=1;strokeColor=none;fillColor=none;" vertex="1" parent="WIyWlLk6GJQsqaUBKTNV-1">
          <mxGeometry x="490" y="240" width="30" height="30" as="geometry" />
        </mxCell>
        <mxCell id="u8ZtOjPHoi9iFquWW6v9-106" style="edgeStyle=orthogonalEdgeStyle;rounded=0;orthogonalLoop=1;jettySize=auto;html=1;exitX=1;exitY=0.5;exitDx=0;exitDy=0;entryX=0;entryY=0.104;entryDx=0;entryDy=0;entryPerimeter=0;endArrow=none;endFill=0;" edge="1" parent="WIyWlLk6GJQsqaUBKTNV-1" source="u8ZtOjPHoi9iFquWW6v9-49" target="u8ZtOjPHoi9iFquWW6v9-19">
          <mxGeometry relative="1" as="geometry">
            <mxPoint x="1180" y="217.76470588235293" as="targetPoint" />
            <Array as="points">
              <mxPoint x="790" y="199" />
              <mxPoint x="1150" y="199" />
            </Array>
          </mxGeometry>
        </mxCell>
        <mxCell id="u8ZtOjPHoi9iFquWW6v9-108" value="*" style="text;html=1;align=center;verticalAlign=middle;resizable=0;points=[];autosize=1;strokeColor=none;fillColor=none;" vertex="1" parent="WIyWlLk6GJQsqaUBKTNV-1">
          <mxGeometry x="1160" y="170" width="30" height="30" as="geometry" />
        </mxCell>
      </root>
    </mxGraphModel>
  </diagram>
</mxfile>
